<mxfile host="Electron" modified="2023-12-29T15:12:25.276Z" agent="Mozilla/5.0 (Windows NT 10.0; Win64; x64) AppleWebKit/537.36 (KHTML, like Gecko) draw.io/22.1.15 Chrome/120.0.6099.109 Electron/28.1.0 Safari/537.36" etag="aBFYa75IFbPrQUeF5CRD" version="22.1.15" type="device">
  <diagram name="Page-1" id="uBEYs8rzYotO4BRfiKfL">
    <mxGraphModel dx="1036" dy="606" grid="0" gridSize="10" guides="1" tooltips="1" connect="1" arrows="1" fold="1" page="1" pageScale="1" pageWidth="850" pageHeight="1100" math="0" shadow="0">
      <root>
        <mxCell id="0" />
        <mxCell id="1" parent="0" />
        <mxCell id="6TgJV3Jc2HLrTbrMb17n-1" value="" style="group" vertex="1" connectable="0" parent="1">
          <mxGeometry x="344" y="271" width="190" height="163.005" as="geometry" />
        </mxCell>
        <mxCell id="6TgJV3Jc2HLrTbrMb17n-2" value="&lt;p style=&quot;margin:0px;margin-top:6px;text-align:center;&quot;&gt;&lt;b&gt;Gateway Microservice&lt;/b&gt;&lt;/p&gt;&lt;p style=&quot;margin:0px;margin-top:6px;text-align:center;&quot;&gt;&lt;b&gt;&lt;br&gt;&lt;/b&gt;&lt;/p&gt;" style="align=left;overflow=fill;html=1;dropTarget=0;whiteSpace=wrap;" vertex="1" parent="6TgJV3Jc2HLrTbrMb17n-1">
          <mxGeometry width="190" height="157" as="geometry" />
        </mxCell>
        <mxCell id="6TgJV3Jc2HLrTbrMb17n-3" value="" style="shape=component;jettyWidth=8;jettyHeight=4;" vertex="1" parent="6TgJV3Jc2HLrTbrMb17n-2">
          <mxGeometry x="1" width="20" height="20" relative="1" as="geometry">
            <mxPoint x="-24" y="4" as="offset" />
          </mxGeometry>
        </mxCell>
        <mxCell id="6TgJV3Jc2HLrTbrMb17n-4" value="&lt;p style=&quot;margin:0px;margin-top:6px;text-align:center;&quot;&gt;&lt;b&gt;Login View&lt;/b&gt;&lt;/p&gt;" style="align=left;overflow=fill;html=1;dropTarget=0;whiteSpace=wrap;" vertex="1" parent="6TgJV3Jc2HLrTbrMb17n-1">
          <mxGeometry x="10" y="41" width="170" height="38.85" as="geometry" />
        </mxCell>
        <mxCell id="6TgJV3Jc2HLrTbrMb17n-5" value="" style="shape=component;jettyWidth=8;jettyHeight=4;" vertex="1" parent="6TgJV3Jc2HLrTbrMb17n-4">
          <mxGeometry x="1" width="20" height="20" relative="1" as="geometry">
            <mxPoint x="-24" y="4" as="offset" />
          </mxGeometry>
        </mxCell>
        <mxCell id="6TgJV3Jc2HLrTbrMb17n-16" value="" style="whiteSpace=wrap;html=1;aspect=fixed;" vertex="1" parent="6TgJV3Jc2HLrTbrMb17n-1">
          <mxGeometry x="75" y="-11.775" width="13" height="13" as="geometry" />
        </mxCell>
        <mxCell id="6TgJV3Jc2HLrTbrMb17n-17" value="" style="endArrow=none;html=1;rounded=0;entryX=0.5;entryY=1;entryDx=0;entryDy=0;exitX=0.429;exitY=0.021;exitDx=0;exitDy=0;exitPerimeter=0;" edge="1" parent="6TgJV3Jc2HLrTbrMb17n-1" source="6TgJV3Jc2HLrTbrMb17n-4" target="6TgJV3Jc2HLrTbrMb17n-16">
          <mxGeometry width="50" height="50" relative="1" as="geometry">
            <mxPoint x="98" y="56.25833333333333" as="sourcePoint" />
            <mxPoint x="122.5" y="14.391666666666667" as="targetPoint" />
          </mxGeometry>
        </mxCell>
        <mxCell id="6TgJV3Jc2HLrTbrMb17n-113" value="&lt;p style=&quot;margin:0px;margin-top:6px;text-align:center;&quot;&gt;&lt;b&gt;Dispatcher&lt;/b&gt;&lt;/p&gt;" style="align=left;overflow=fill;html=1;dropTarget=0;whiteSpace=wrap;" vertex="1" parent="6TgJV3Jc2HLrTbrMb17n-1">
          <mxGeometry x="10" y="95" width="170" height="38.85" as="geometry" />
        </mxCell>
        <mxCell id="6TgJV3Jc2HLrTbrMb17n-114" value="" style="shape=component;jettyWidth=8;jettyHeight=4;" vertex="1" parent="6TgJV3Jc2HLrTbrMb17n-113">
          <mxGeometry x="1" width="20" height="20" relative="1" as="geometry">
            <mxPoint x="-24" y="4" as="offset" />
          </mxGeometry>
        </mxCell>
        <mxCell id="6TgJV3Jc2HLrTbrMb17n-119" value="" style="whiteSpace=wrap;html=1;aspect=fixed;" vertex="1" parent="6TgJV3Jc2HLrTbrMb17n-1">
          <mxGeometry x="75" y="150.005" width="13" height="13" as="geometry" />
        </mxCell>
        <mxCell id="6TgJV3Jc2HLrTbrMb17n-120" value="" style="endArrow=none;html=1;rounded=0;exitX=0.5;exitY=0;exitDx=0;exitDy=0;entryX=0.419;entryY=0.992;entryDx=0;entryDy=0;entryPerimeter=0;" edge="1" parent="6TgJV3Jc2HLrTbrMb17n-1" source="6TgJV3Jc2HLrTbrMb17n-119" target="6TgJV3Jc2HLrTbrMb17n-113">
          <mxGeometry width="50" height="50" relative="1" as="geometry">
            <mxPoint x="63" y="150" as="sourcePoint" />
            <mxPoint x="113" y="100" as="targetPoint" />
          </mxGeometry>
        </mxCell>
        <mxCell id="6TgJV3Jc2HLrTbrMb17n-6" value="" style="group" vertex="1" connectable="0" parent="1">
          <mxGeometry x="146" y="640" width="200" height="127" as="geometry" />
        </mxCell>
        <mxCell id="6TgJV3Jc2HLrTbrMb17n-7" value="&lt;p style=&quot;margin:0px;margin-top:6px;text-align:center;&quot;&gt;&lt;b&gt;Notification Microservice&lt;/b&gt;&lt;/p&gt;" style="align=left;overflow=fill;html=1;dropTarget=0;whiteSpace=wrap;" vertex="1" parent="6TgJV3Jc2HLrTbrMb17n-6">
          <mxGeometry width="200" height="120" as="geometry" />
        </mxCell>
        <mxCell id="6TgJV3Jc2HLrTbrMb17n-8" value="" style="shape=component;jettyWidth=8;jettyHeight=4;" vertex="1" parent="6TgJV3Jc2HLrTbrMb17n-7">
          <mxGeometry x="1" width="20" height="20" relative="1" as="geometry">
            <mxPoint x="-24" y="4" as="offset" />
          </mxGeometry>
        </mxCell>
        <mxCell id="6TgJV3Jc2HLrTbrMb17n-9" value="&lt;p style=&quot;margin:0px;margin-top:6px;text-align:center;&quot;&gt;&lt;b&gt;Notification View&lt;/b&gt;&lt;/p&gt;" style="align=left;overflow=fill;html=1;dropTarget=0;whiteSpace=wrap;" vertex="1" parent="6TgJV3Jc2HLrTbrMb17n-6">
          <mxGeometry x="10" y="44.44" width="180" height="44.44" as="geometry" />
        </mxCell>
        <mxCell id="6TgJV3Jc2HLrTbrMb17n-10" value="" style="shape=component;jettyWidth=8;jettyHeight=4;" vertex="1" parent="6TgJV3Jc2HLrTbrMb17n-9">
          <mxGeometry x="1" width="20" height="20" relative="1" as="geometry">
            <mxPoint x="-24" y="4" as="offset" />
          </mxGeometry>
        </mxCell>
        <mxCell id="6TgJV3Jc2HLrTbrMb17n-15" value="" style="endArrow=none;html=1;rounded=0;exitX=0;exitY=0.5;exitDx=0;exitDy=0;entryX=0.75;entryY=0;entryDx=0;entryDy=0;" edge="1" parent="1" source="6TgJV3Jc2HLrTbrMb17n-11" target="6TgJV3Jc2HLrTbrMb17n-9">
          <mxGeometry width="50" height="50" relative="1" as="geometry">
            <mxPoint x="263" y="173" as="sourcePoint" />
            <mxPoint x="220" y="723.6667277018229" as="targetPoint" />
          </mxGeometry>
        </mxCell>
        <mxCell id="6TgJV3Jc2HLrTbrMb17n-18" value="" style="group" vertex="1" connectable="0" parent="1">
          <mxGeometry x="460" y="672" width="200" height="127" as="geometry" />
        </mxCell>
        <mxCell id="6TgJV3Jc2HLrTbrMb17n-19" value="&lt;p style=&quot;margin:0px;margin-top:6px;text-align:center;&quot;&gt;&lt;b&gt;Tournament Microservice&lt;/b&gt;&lt;/p&gt;" style="align=left;overflow=fill;html=1;dropTarget=0;whiteSpace=wrap;" vertex="1" parent="6TgJV3Jc2HLrTbrMb17n-18">
          <mxGeometry width="200" height="120" as="geometry" />
        </mxCell>
        <mxCell id="6TgJV3Jc2HLrTbrMb17n-20" value="" style="shape=component;jettyWidth=8;jettyHeight=4;" vertex="1" parent="6TgJV3Jc2HLrTbrMb17n-19">
          <mxGeometry x="1" width="20" height="20" relative="1" as="geometry">
            <mxPoint x="-24" y="4" as="offset" />
          </mxGeometry>
        </mxCell>
        <mxCell id="6TgJV3Jc2HLrTbrMb17n-21" value="&lt;p style=&quot;margin:0px;margin-top:6px;text-align:center;&quot;&gt;&lt;b&gt;Tournament View&lt;/b&gt;&lt;/p&gt;" style="align=left;overflow=fill;html=1;dropTarget=0;whiteSpace=wrap;" vertex="1" parent="6TgJV3Jc2HLrTbrMb17n-18">
          <mxGeometry x="10" y="44.44" width="180" height="44.44" as="geometry" />
        </mxCell>
        <mxCell id="6TgJV3Jc2HLrTbrMb17n-22" value="" style="shape=component;jettyWidth=8;jettyHeight=4;" vertex="1" parent="6TgJV3Jc2HLrTbrMb17n-21">
          <mxGeometry x="1" width="20" height="20" relative="1" as="geometry">
            <mxPoint x="-24" y="4" as="offset" />
          </mxGeometry>
        </mxCell>
        <mxCell id="6TgJV3Jc2HLrTbrMb17n-25" value="" style="whiteSpace=wrap;html=1;aspect=fixed;" vertex="1" parent="6TgJV3Jc2HLrTbrMb17n-18">
          <mxGeometry x="6" y="-7" width="13" height="13" as="geometry" />
        </mxCell>
        <mxCell id="6TgJV3Jc2HLrTbrMb17n-26" value="" style="endArrow=none;html=1;rounded=0;exitX=0.5;exitY=1;exitDx=0;exitDy=0;entryX=0.074;entryY=0.001;entryDx=0;entryDy=0;entryPerimeter=0;" edge="1" parent="6TgJV3Jc2HLrTbrMb17n-18" source="6TgJV3Jc2HLrTbrMb17n-25" target="6TgJV3Jc2HLrTbrMb17n-21">
          <mxGeometry width="50" height="50" relative="1" as="geometry">
            <mxPoint x="27.879999999999995" y="114" as="sourcePoint" />
            <mxPoint x="26.879999999999995" y="88" as="targetPoint" />
          </mxGeometry>
        </mxCell>
        <mxCell id="6TgJV3Jc2HLrTbrMb17n-28" value="" style="ellipse;whiteSpace=wrap;html=1;align=center;aspect=fixed;fillColor=none;strokeColor=none;resizable=0;perimeter=centerPerimeter;rotatable=0;allowArrows=0;points=[];outlineConnect=1;" vertex="1" parent="1">
          <mxGeometry x="606" y="213" width="10" height="10" as="geometry" />
        </mxCell>
        <mxCell id="6TgJV3Jc2HLrTbrMb17n-29" value="&lt;p style=&quot;margin:0px;margin-top:6px;text-align:center;&quot;&gt;&lt;b&gt;Battle Microservice&lt;/b&gt;&lt;/p&gt;" style="align=left;overflow=fill;html=1;dropTarget=0;whiteSpace=wrap;" vertex="1" parent="1">
          <mxGeometry x="70" y="465" width="200" height="120" as="geometry" />
        </mxCell>
        <mxCell id="6TgJV3Jc2HLrTbrMb17n-30" value="" style="shape=component;jettyWidth=8;jettyHeight=4;" vertex="1" parent="6TgJV3Jc2HLrTbrMb17n-29">
          <mxGeometry x="1" width="20" height="20" relative="1" as="geometry">
            <mxPoint x="-24" y="4" as="offset" />
          </mxGeometry>
        </mxCell>
        <mxCell id="6TgJV3Jc2HLrTbrMb17n-31" value="&lt;p style=&quot;margin:0px;margin-top:6px;text-align:center;&quot;&gt;&lt;b&gt;Battle View&lt;/b&gt;&lt;/p&gt;" style="align=left;overflow=fill;html=1;dropTarget=0;whiteSpace=wrap;" vertex="1" parent="1">
          <mxGeometry x="80" y="511.44" width="172" height="44.44" as="geometry" />
        </mxCell>
        <mxCell id="6TgJV3Jc2HLrTbrMb17n-32" value="" style="shape=component;jettyWidth=8;jettyHeight=4;" vertex="1" parent="6TgJV3Jc2HLrTbrMb17n-31">
          <mxGeometry x="1" width="20" height="20" relative="1" as="geometry">
            <mxPoint x="-24" y="4" as="offset" />
          </mxGeometry>
        </mxCell>
        <mxCell id="6TgJV3Jc2HLrTbrMb17n-34" value="" style="ellipse;whiteSpace=wrap;html=1;align=center;aspect=fixed;fillColor=none;strokeColor=none;resizable=0;perimeter=centerPerimeter;rotatable=0;allowArrows=0;points=[];outlineConnect=1;" vertex="1" parent="1">
          <mxGeometry x="180" y="435" width="10" height="10" as="geometry" />
        </mxCell>
        <mxCell id="6TgJV3Jc2HLrTbrMb17n-35" value="" style="endArrow=none;html=1;rounded=0;exitX=0;exitY=0.5;exitDx=0;exitDy=0;entryX=1;entryY=0.5;entryDx=0;entryDy=0;" edge="1" parent="1" source="6TgJV3Jc2HLrTbrMb17n-47" target="6TgJV3Jc2HLrTbrMb17n-31">
          <mxGeometry width="50" height="50" relative="1" as="geometry">
            <mxPoint x="212" y="560" as="sourcePoint" />
            <mxPoint x="212" y="555" as="targetPoint" />
          </mxGeometry>
        </mxCell>
        <mxCell id="6TgJV3Jc2HLrTbrMb17n-47" value="" style="whiteSpace=wrap;html=1;aspect=fixed;" vertex="1" parent="1">
          <mxGeometry x="266" y="527.16" width="13" height="13" as="geometry" />
        </mxCell>
        <mxCell id="6TgJV3Jc2HLrTbrMb17n-49" value="" style="ellipse;whiteSpace=wrap;html=1;align=center;aspect=fixed;fillColor=none;strokeColor=none;resizable=0;perimeter=centerPerimeter;rotatable=0;allowArrows=0;points=[];outlineConnect=1;" vertex="1" parent="1">
          <mxGeometry x="315" y="335" width="10" height="10" as="geometry" />
        </mxCell>
        <mxCell id="6TgJV3Jc2HLrTbrMb17n-51" value="" style="ellipse;whiteSpace=wrap;html=1;align=center;aspect=fixed;fillColor=none;strokeColor=none;resizable=0;perimeter=centerPerimeter;rotatable=0;allowArrows=0;points=[];outlineConnect=1;" vertex="1" parent="1">
          <mxGeometry x="536" y="272" width="10" height="10" as="geometry" />
        </mxCell>
        <mxCell id="6TgJV3Jc2HLrTbrMb17n-67" value="" style="group" vertex="1" connectable="0" parent="1">
          <mxGeometry x="592" y="454" width="200.5" height="173" as="geometry" />
        </mxCell>
        <mxCell id="6TgJV3Jc2HLrTbrMb17n-68" value="&lt;p style=&quot;margin:0px;margin-top:6px;text-align:center;&quot;&gt;&lt;b&gt;User Management&lt;/b&gt;&lt;/p&gt;&lt;p style=&quot;margin:0px;margin-top:6px;text-align:center;&quot;&gt;&lt;b&gt;Microservice&lt;/b&gt;&lt;/p&gt;" style="align=left;overflow=fill;html=1;dropTarget=0;whiteSpace=wrap;" vertex="1" parent="6TgJV3Jc2HLrTbrMb17n-67">
          <mxGeometry x="-9" width="209.5" height="173" as="geometry" />
        </mxCell>
        <mxCell id="6TgJV3Jc2HLrTbrMb17n-69" value="" style="shape=component;jettyWidth=8;jettyHeight=4;" vertex="1" parent="6TgJV3Jc2HLrTbrMb17n-68">
          <mxGeometry x="1" width="20" height="20" relative="1" as="geometry">
            <mxPoint x="-24" y="4" as="offset" />
          </mxGeometry>
        </mxCell>
        <mxCell id="6TgJV3Jc2HLrTbrMb17n-70" value="&lt;p style=&quot;margin:0px;margin-top:6px;text-align:center;&quot;&gt;&lt;b&gt;Student Profile View&lt;/b&gt;&lt;/p&gt;" style="align=left;overflow=fill;html=1;dropTarget=0;whiteSpace=wrap;" vertex="1" parent="6TgJV3Jc2HLrTbrMb17n-67">
          <mxGeometry x="16" y="52" width="169" height="44.44" as="geometry" />
        </mxCell>
        <mxCell id="6TgJV3Jc2HLrTbrMb17n-71" value="" style="shape=component;jettyWidth=8;jettyHeight=4;" vertex="1" parent="6TgJV3Jc2HLrTbrMb17n-70">
          <mxGeometry x="1" width="20" height="20" relative="1" as="geometry">
            <mxPoint x="-24" y="4" as="offset" />
          </mxGeometry>
        </mxCell>
        <mxCell id="6TgJV3Jc2HLrTbrMb17n-72" value="&lt;p style=&quot;margin:0px;margin-top:6px;text-align:center;&quot;&gt;&lt;b&gt;Educator Profile View&lt;/b&gt;&lt;/p&gt;" style="align=left;overflow=fill;html=1;dropTarget=0;whiteSpace=wrap;" vertex="1" parent="6TgJV3Jc2HLrTbrMb17n-67">
          <mxGeometry x="16" y="111" width="168" height="44.44" as="geometry" />
        </mxCell>
        <mxCell id="6TgJV3Jc2HLrTbrMb17n-73" value="" style="shape=component;jettyWidth=8;jettyHeight=4;" vertex="1" parent="6TgJV3Jc2HLrTbrMb17n-72">
          <mxGeometry x="1" width="20" height="20" relative="1" as="geometry">
            <mxPoint x="-24" y="4" as="offset" />
          </mxGeometry>
        </mxCell>
        <mxCell id="6TgJV3Jc2HLrTbrMb17n-74" value="" style="endArrow=none;html=1;rounded=0;entryX=0;entryY=0.5;entryDx=0;entryDy=0;exitX=-0.004;exitY=0.772;exitDx=0;exitDy=0;exitPerimeter=0;" edge="1" parent="6TgJV3Jc2HLrTbrMb17n-67" source="6TgJV3Jc2HLrTbrMb17n-68" target="6TgJV3Jc2HLrTbrMb17n-72">
          <mxGeometry width="50" height="50" relative="1" as="geometry">
            <mxPoint x="-93" y="86" as="sourcePoint" />
            <mxPoint x="-43" y="36" as="targetPoint" />
          </mxGeometry>
        </mxCell>
        <mxCell id="6TgJV3Jc2HLrTbrMb17n-76" value="" style="whiteSpace=wrap;html=1;aspect=fixed;" vertex="1" parent="6TgJV3Jc2HLrTbrMb17n-67">
          <mxGeometry x="-17" y="69" width="13" height="13" as="geometry" />
        </mxCell>
        <mxCell id="6TgJV3Jc2HLrTbrMb17n-78" value="" style="whiteSpace=wrap;html=1;aspect=fixed;" vertex="1" parent="6TgJV3Jc2HLrTbrMb17n-67">
          <mxGeometry x="-17" y="127.27999999999997" width="13" height="13" as="geometry" />
        </mxCell>
        <mxCell id="6TgJV3Jc2HLrTbrMb17n-75" value="" style="ellipse;whiteSpace=wrap;html=1;align=center;aspect=fixed;fillColor=none;strokeColor=none;resizable=0;perimeter=centerPerimeter;rotatable=0;allowArrows=0;points=[];outlineConnect=1;" vertex="1" parent="1">
          <mxGeometry x="376" y="180" width="10" height="10" as="geometry" />
        </mxCell>
        <mxCell id="6TgJV3Jc2HLrTbrMb17n-77" value="" style="endArrow=none;html=1;rounded=0;exitX=1;exitY=0.5;exitDx=0;exitDy=0;entryX=0;entryY=0.5;entryDx=0;entryDy=0;" edge="1" parent="1" target="6TgJV3Jc2HLrTbrMb17n-70">
          <mxGeometry width="50" height="50" relative="1" as="geometry">
            <mxPoint x="588" y="528.2199999999999" as="sourcePoint" />
            <mxPoint x="607" y="528" as="targetPoint" />
          </mxGeometry>
        </mxCell>
        <mxCell id="6TgJV3Jc2HLrTbrMb17n-84" value="" style="ellipse;whiteSpace=wrap;html=1;align=center;aspect=fixed;fillColor=none;strokeColor=none;resizable=0;perimeter=centerPerimeter;rotatable=0;allowArrows=0;points=[];outlineConnect=1;" vertex="1" parent="1">
          <mxGeometry x="516" y="307" width="10" height="10" as="geometry" />
        </mxCell>
        <mxCell id="6TgJV3Jc2HLrTbrMb17n-85" value="" style="ellipse;whiteSpace=wrap;html=1;align=center;aspect=fixed;fillColor=none;strokeColor=none;resizable=0;perimeter=centerPerimeter;rotatable=0;allowArrows=0;points=[];outlineConnect=1;" vertex="1" parent="1">
          <mxGeometry x="316" y="251" width="10" height="10" as="geometry" />
        </mxCell>
        <mxCell id="6TgJV3Jc2HLrTbrMb17n-89" value="" style="ellipse;whiteSpace=wrap;html=1;align=center;aspect=fixed;fillColor=none;strokeColor=none;resizable=0;perimeter=centerPerimeter;rotatable=0;allowArrows=0;points=[];outlineConnect=1;" vertex="1" parent="1">
          <mxGeometry x="445" y="368" width="10" height="10" as="geometry" />
        </mxCell>
        <mxCell id="6TgJV3Jc2HLrTbrMb17n-98" value="" style="ellipse;whiteSpace=wrap;html=1;align=center;aspect=fixed;fillColor=none;strokeColor=none;resizable=0;perimeter=centerPerimeter;rotatable=0;allowArrows=0;points=[];outlineConnect=1;" vertex="1" parent="1">
          <mxGeometry x="425" y="242" width="10" height="10" as="geometry" />
        </mxCell>
        <mxCell id="6TgJV3Jc2HLrTbrMb17n-100" value="" style="ellipse;whiteSpace=wrap;html=1;align=center;aspect=fixed;fillColor=none;strokeColor=none;resizable=0;perimeter=centerPerimeter;rotatable=0;allowArrows=0;points=[];outlineConnect=1;" vertex="1" parent="1">
          <mxGeometry x="425" y="242" width="10" height="10" as="geometry" />
        </mxCell>
        <mxCell id="6TgJV3Jc2HLrTbrMb17n-102" value="" style="ellipse;whiteSpace=wrap;html=1;align=center;aspect=fixed;fillColor=none;strokeColor=none;resizable=0;perimeter=centerPerimeter;rotatable=0;allowArrows=0;points=[];outlineConnect=1;" vertex="1" parent="1">
          <mxGeometry x="460" y="273" width="10" height="10" as="geometry" />
        </mxCell>
        <mxCell id="6TgJV3Jc2HLrTbrMb17n-106" value="" style="ellipse;whiteSpace=wrap;html=1;align=center;aspect=fixed;fillColor=none;strokeColor=none;resizable=0;perimeter=centerPerimeter;rotatable=0;allowArrows=0;points=[];outlineConnect=1;" vertex="1" parent="1">
          <mxGeometry x="250" y="365" width="10" height="10" as="geometry" />
        </mxCell>
        <mxCell id="6TgJV3Jc2HLrTbrMb17n-108" value="" style="ellipse;whiteSpace=wrap;html=1;align=center;aspect=fixed;fillColor=none;strokeColor=none;resizable=0;perimeter=centerPerimeter;rotatable=0;allowArrows=0;points=[];outlineConnect=1;" vertex="1" parent="1">
          <mxGeometry x="335" y="263" width="10" height="10" as="geometry" />
        </mxCell>
        <mxCell id="6TgJV3Jc2HLrTbrMb17n-110" value="" style="ellipse;whiteSpace=wrap;html=1;align=center;aspect=fixed;fillColor=none;strokeColor=none;resizable=0;perimeter=centerPerimeter;rotatable=0;allowArrows=0;points=[];outlineConnect=1;" vertex="1" parent="1">
          <mxGeometry x="431" y="332" width="10" height="10" as="geometry" />
        </mxCell>
        <mxCell id="6TgJV3Jc2HLrTbrMb17n-112" value="" style="ellipse;whiteSpace=wrap;html=1;align=center;aspect=fixed;fillColor=none;strokeColor=none;resizable=0;perimeter=centerPerimeter;rotatable=0;allowArrows=0;points=[];outlineConnect=1;" vertex="1" parent="1">
          <mxGeometry x="441" y="224" width="10" height="10" as="geometry" />
        </mxCell>
        <mxCell id="6TgJV3Jc2HLrTbrMb17n-116" value="" style="ellipse;whiteSpace=wrap;html=1;aspect=fixed;" vertex="1" parent="1">
          <mxGeometry x="417" y="201" width="15" height="15" as="geometry" />
        </mxCell>
        <mxCell id="6TgJV3Jc2HLrTbrMb17n-117" value="" style="endArrow=none;html=1;rounded=0;entryX=0.5;entryY=1;entryDx=0;entryDy=0;exitX=0.5;exitY=0;exitDx=0;exitDy=0;" edge="1" parent="1" source="6TgJV3Jc2HLrTbrMb17n-16" target="6TgJV3Jc2HLrTbrMb17n-116">
          <mxGeometry width="50" height="50" relative="1" as="geometry">
            <mxPoint x="407" y="261" as="sourcePoint" />
            <mxPoint x="457" y="211" as="targetPoint" />
          </mxGeometry>
        </mxCell>
        <mxCell id="6TgJV3Jc2HLrTbrMb17n-118" value="LogInPage" style="text;html=1;align=center;verticalAlign=middle;resizable=0;points=[];autosize=1;strokeColor=none;fillColor=none;" vertex="1" parent="1">
          <mxGeometry x="419" y="161" width="76" height="26" as="geometry" />
        </mxCell>
        <mxCell id="6TgJV3Jc2HLrTbrMb17n-121" value="" style="ellipse;whiteSpace=wrap;html=1;aspect=fixed;" vertex="1" parent="1">
          <mxGeometry x="325" y="526.24" width="15" height="15" as="geometry" />
        </mxCell>
        <mxCell id="6TgJV3Jc2HLrTbrMb17n-122" value="" style="endArrow=none;html=1;rounded=0;exitX=1;exitY=0.5;exitDx=0;exitDy=0;entryX=0;entryY=0.5;entryDx=0;entryDy=0;" edge="1" parent="1" source="6TgJV3Jc2HLrTbrMb17n-47" target="6TgJV3Jc2HLrTbrMb17n-121">
          <mxGeometry width="50" height="50" relative="1" as="geometry">
            <mxPoint x="295" y="524" as="sourcePoint" />
            <mxPoint x="345" y="474" as="targetPoint" />
          </mxGeometry>
        </mxCell>
        <mxCell id="6TgJV3Jc2HLrTbrMb17n-123" value="&lt;font face=&quot;Verdana&quot; style=&quot;font-size: 8px;&quot;&gt;BattleHomePage&lt;br&gt;BattleCreationForm&lt;/font&gt;" style="text;html=1;align=center;verticalAlign=middle;resizable=0;points=[];autosize=1;strokeColor=none;fillColor=none;" vertex="1" parent="1">
          <mxGeometry x="284.5" y="532" width="96" height="41" as="geometry" />
        </mxCell>
        <mxCell id="6TgJV3Jc2HLrTbrMb17n-11" value="" style="whiteSpace=wrap;html=1;aspect=fixed;" vertex="1" parent="1">
          <mxGeometry x="340" y="669" width="13" height="13" as="geometry" />
        </mxCell>
        <mxCell id="6TgJV3Jc2HLrTbrMb17n-124" value="" style="ellipse;whiteSpace=wrap;html=1;aspect=fixed;" vertex="1" parent="1">
          <mxGeometry x="379" y="619" width="15" height="15" as="geometry" />
        </mxCell>
        <mxCell id="6TgJV3Jc2HLrTbrMb17n-125" value="" style="endArrow=none;html=1;rounded=0;entryX=0;entryY=1;entryDx=0;entryDy=0;exitX=1;exitY=0.5;exitDx=0;exitDy=0;" edge="1" parent="1" source="6TgJV3Jc2HLrTbrMb17n-11" target="6TgJV3Jc2HLrTbrMb17n-124">
          <mxGeometry width="50" height="50" relative="1" as="geometry">
            <mxPoint x="358" y="697" as="sourcePoint" />
            <mxPoint x="408" y="647" as="targetPoint" />
          </mxGeometry>
        </mxCell>
        <mxCell id="6TgJV3Jc2HLrTbrMb17n-126" value="&lt;font face=&quot;Verdana&quot; style=&quot;font-size: 8px;&quot;&gt;NotificationPage&lt;/font&gt;" style="text;html=1;align=center;verticalAlign=middle;resizable=0;points=[];autosize=1;strokeColor=none;fillColor=none;" vertex="1" parent="1">
          <mxGeometry x="303" y="608" width="83" height="26" as="geometry" />
        </mxCell>
        <mxCell id="6TgJV3Jc2HLrTbrMb17n-127" value="" style="endArrow=none;html=1;rounded=0;entryX=0.5;entryY=1;entryDx=0;entryDy=0;exitX=0.5;exitY=0;exitDx=0;exitDy=0;" edge="1" target="6TgJV3Jc2HLrTbrMb17n-128" parent="1" source="6TgJV3Jc2HLrTbrMb17n-25">
          <mxGeometry width="50" height="50" relative="1" as="geometry">
            <mxPoint x="441" y="658" as="sourcePoint" />
            <mxPoint x="496.5" y="629" as="targetPoint" />
          </mxGeometry>
        </mxCell>
        <mxCell id="6TgJV3Jc2HLrTbrMb17n-128" value="" style="ellipse;whiteSpace=wrap;html=1;aspect=fixed;" vertex="1" parent="1">
          <mxGeometry x="464" y="601" width="15" height="15" as="geometry" />
        </mxCell>
        <mxCell id="6TgJV3Jc2HLrTbrMb17n-129" value="&lt;font face=&quot;Verdana&quot; style=&quot;font-size: 8px;&quot;&gt;TournamentHomePage&lt;br&gt;TournamentCreationForm&lt;/font&gt;" style="text;html=1;align=center;verticalAlign=middle;resizable=0;points=[];autosize=1;strokeColor=none;fillColor=none;" vertex="1" parent="1">
          <mxGeometry x="464" y="609" width="120" height="41" as="geometry" />
        </mxCell>
        <mxCell id="6TgJV3Jc2HLrTbrMb17n-130" value="" style="ellipse;whiteSpace=wrap;html=1;aspect=fixed;" vertex="1" parent="1">
          <mxGeometry x="507" y="522" width="14" height="14" as="geometry" />
        </mxCell>
        <mxCell id="6TgJV3Jc2HLrTbrMb17n-131" value="" style="endArrow=none;html=1;rounded=0;entryX=0;entryY=0.5;entryDx=0;entryDy=0;exitX=1;exitY=0.5;exitDx=0;exitDy=0;" edge="1" parent="1" source="6TgJV3Jc2HLrTbrMb17n-130" target="6TgJV3Jc2HLrTbrMb17n-76">
          <mxGeometry width="50" height="50" relative="1" as="geometry">
            <mxPoint x="512" y="562" as="sourcePoint" />
            <mxPoint x="562" y="512" as="targetPoint" />
          </mxGeometry>
        </mxCell>
        <mxCell id="6TgJV3Jc2HLrTbrMb17n-132" value="" style="endArrow=none;html=1;rounded=0;entryX=0;entryY=0.5;entryDx=0;entryDy=0;exitX=1;exitY=0.5;exitDx=0;exitDy=0;" edge="1" source="6TgJV3Jc2HLrTbrMb17n-133" parent="1">
          <mxGeometry width="50" height="50" relative="1" as="geometry">
            <mxPoint x="512" y="620" as="sourcePoint" />
            <mxPoint x="575" y="588" as="targetPoint" />
          </mxGeometry>
        </mxCell>
        <mxCell id="6TgJV3Jc2HLrTbrMb17n-133" value="" style="ellipse;whiteSpace=wrap;html=1;aspect=fixed;" vertex="1" parent="1">
          <mxGeometry x="507" y="580" width="14" height="14" as="geometry" />
        </mxCell>
        <mxCell id="6TgJV3Jc2HLrTbrMb17n-134" value="&lt;font face=&quot;Verdana&quot; style=&quot;font-size: 8px;&quot;&gt;StudentProfile&lt;/font&gt;" style="text;html=1;align=center;verticalAlign=middle;resizable=0;points=[];autosize=1;strokeColor=none;fillColor=none;" vertex="1" parent="1">
          <mxGeometry x="500" y="496" width="75" height="26" as="geometry" />
        </mxCell>
        <mxCell id="6TgJV3Jc2HLrTbrMb17n-135" value="&lt;font face=&quot;Verdana&quot; style=&quot;font-size: 8px;&quot;&gt;EducatorProfile&lt;/font&gt;" style="text;html=1;align=center;verticalAlign=middle;resizable=0;points=[];autosize=1;strokeColor=none;fillColor=none;" vertex="1" parent="1">
          <mxGeometry x="507" y="559" width="79" height="26" as="geometry" />
        </mxCell>
        <mxCell id="6TgJV3Jc2HLrTbrMb17n-136" value="" style="rounded=0;orthogonalLoop=1;jettySize=auto;html=1;endArrow=halfCircle;endFill=0;endSize=6;strokeWidth=1;sketch=0;fontSize=12;curved=1;exitX=0.5;exitY=1;exitDx=0;exitDy=0;" edge="1" target="6TgJV3Jc2HLrTbrMb17n-130" parent="1" source="6TgJV3Jc2HLrTbrMb17n-119">
          <mxGeometry relative="1" as="geometry">
            <mxPoint x="460" y="485" as="sourcePoint" />
          </mxGeometry>
        </mxCell>
        <mxCell id="6TgJV3Jc2HLrTbrMb17n-137" value="" style="ellipse;whiteSpace=wrap;html=1;align=center;aspect=fixed;fillColor=none;strokeColor=none;resizable=0;perimeter=centerPerimeter;rotatable=0;allowArrows=0;points=[];outlineConnect=1;" vertex="1" parent="1">
          <mxGeometry x="435" y="480" width="10" height="10" as="geometry" />
        </mxCell>
        <mxCell id="6TgJV3Jc2HLrTbrMb17n-138" value="" style="rounded=0;orthogonalLoop=1;jettySize=auto;html=1;endArrow=halfCircle;endFill=0;endSize=6;strokeWidth=1;sketch=0;fontSize=12;curved=1;exitX=0.5;exitY=1;exitDx=0;exitDy=0;" edge="1" parent="1" source="6TgJV3Jc2HLrTbrMb17n-119" target="6TgJV3Jc2HLrTbrMb17n-133">
          <mxGeometry relative="1" as="geometry">
            <mxPoint x="398.64" y="440.06" as="sourcePoint" />
            <mxPoint x="481.64" y="530.06" as="targetPoint" />
          </mxGeometry>
        </mxCell>
        <mxCell id="6TgJV3Jc2HLrTbrMb17n-139" value="" style="rounded=0;orthogonalLoop=1;jettySize=auto;html=1;endArrow=halfCircle;endFill=0;endSize=6;strokeWidth=1;sketch=0;fontSize=12;curved=1;exitX=0.5;exitY=1;exitDx=0;exitDy=0;" edge="1" parent="1" source="6TgJV3Jc2HLrTbrMb17n-119" target="6TgJV3Jc2HLrTbrMb17n-128">
          <mxGeometry relative="1" as="geometry">
            <mxPoint x="402.51" y="438.06" as="sourcePoint" />
            <mxPoint x="486.51" y="585.06" as="targetPoint" />
          </mxGeometry>
        </mxCell>
        <mxCell id="6TgJV3Jc2HLrTbrMb17n-140" value="" style="rounded=0;orthogonalLoop=1;jettySize=auto;html=1;endArrow=halfCircle;endFill=0;endSize=6;strokeWidth=1;sketch=0;fontSize=12;curved=1;exitX=0.5;exitY=1;exitDx=0;exitDy=0;" edge="1" parent="1" source="6TgJV3Jc2HLrTbrMb17n-119" target="6TgJV3Jc2HLrTbrMb17n-124">
          <mxGeometry relative="1" as="geometry">
            <mxPoint x="408.46" y="434.99" as="sourcePoint" />
            <mxPoint x="452.46" y="601.99" as="targetPoint" />
          </mxGeometry>
        </mxCell>
        <mxCell id="6TgJV3Jc2HLrTbrMb17n-141" value="" style="rounded=0;orthogonalLoop=1;jettySize=auto;html=1;endArrow=halfCircle;endFill=0;endSize=6;strokeWidth=1;sketch=0;fontSize=12;curved=1;exitX=0.5;exitY=1;exitDx=0;exitDy=0;" edge="1" parent="1" source="6TgJV3Jc2HLrTbrMb17n-119" target="6TgJV3Jc2HLrTbrMb17n-121">
          <mxGeometry relative="1" as="geometry">
            <mxPoint x="417.02" y="433.85" as="sourcePoint" />
            <mxPoint x="379.02" y="618.85" as="targetPoint" />
          </mxGeometry>
        </mxCell>
      </root>
    </mxGraphModel>
  </diagram>
</mxfile>
